<svg width="1920" height="1080" viewBox="0 0 1920 1080" fill="none" xmlns="http://www.w3.org/2000/svg">
<g clip-path="url(#clip0)">
<rect width="1920" height="1080" fill="white"/>
<path d="M1919.85 -185H0.0498047V1094.87H1919.85V-185Z" fill="#C1CFE5"/>
<path opacity="0.5" d="M60.7599 261.52C146.784 261.52 216.52 191.784 216.52 105.76C216.52 19.736 146.784 -50 60.7599 -50C-25.2639 -50 -95 19.736 -95 105.76C-95 191.784 -25.2639 261.52 60.7599 261.52Z" fill="#F7FAFF"/>
<path opacity="0.5" d="M173.289 132.878C188.263 70.7438 150.033 8.23473 87.898 -6.7398C25.7635 -21.7143 -36.7456 16.5163 -51.7202 78.6508C-66.6947 140.785 -28.464 203.295 33.6704 218.269C95.8049 233.244 158.314 195.013 173.289 132.878Z" fill="#F7FAFF"/>
<path d="M60.7606 199.804C112.7 199.804 154.805 157.699 154.805 105.759C154.805 53.8201 112.7 11.7148 60.7606 11.7148C8.82116 11.7148 -33.2842 53.8201 -33.2842 105.759C-33.2842 157.699 8.82116 199.804 60.7606 199.804Z" fill="#F7FAFF"/>
<path d="M1919.85 376.785V1094.87H325.368C296.638 1094.87 269.084 1083.45 248.769 1063.14C228.453 1042.82 217.04 1015.27 217.04 986.54C217.04 957.809 228.453 930.256 248.769 909.94C269.084 889.625 296.638 878.212 325.368 878.212C327.569 878.212 329.745 878.212 331.895 878.416C340.355 850.031 356.605 824.587 378.798 804.972C400.992 785.358 428.241 772.359 457.45 767.452C462.484 749.589 471.798 733.224 484.585 719.775C497.372 706.325 513.247 696.197 530.833 690.269C548.418 684.341 567.185 682.791 585.505 685.754C603.825 688.717 621.146 696.103 635.966 707.273C642.262 703.024 648.819 699.177 655.599 695.754C681.687 667.612 717.55 650.514 755.839 647.964C749.145 614.116 754.025 579.001 769.693 548.261C785.361 517.52 810.909 492.939 842.23 478.467C873.551 463.995 908.828 460.473 942.393 468.465C975.957 476.458 1005.86 495.502 1027.3 522.537C1044.07 495.105 1070.3 474.756 1101.03 465.325C1131.77 455.895 1164.9 458.035 1194.17 471.342C1229.33 440.656 1275.02 424.808 1321.62 427.133C1368.23 429.458 1412.12 449.775 1444.05 483.808C1461.5 477.665 1479.84 474.423 1498.34 474.209C1487.97 461.447 1481.43 446.008 1479.47 429.681C1477.52 413.354 1480.23 396.807 1487.29 381.957C1494.35 367.106 1505.47 354.56 1519.37 345.771C1533.27 336.982 1549.37 332.311 1565.81 332.297C1567.68 332.297 1569.55 332.297 1571.4 332.476C1582.16 290.738 1607.78 254.359 1643.45 230.164C1679.12 205.969 1722.39 195.619 1765.15 201.056C1807.91 206.493 1847.22 227.344 1875.7 259.697C1904.18 292.049 1919.88 333.682 1919.85 376.785Z" fill="#D2DCF1"/>
<path d="M958.798 1033.87C958.798 1050.05 952.372 1065.56 940.932 1077C929.493 1088.44 913.978 1094.87 897.8 1094.87H0.0498047V690.557C0.0902375 665.132 9.84509 640.683 27.3184 622.213C44.7916 603.744 68.6623 592.65 94.0462 591.201C119.43 589.752 144.408 598.059 163.869 614.42C183.33 630.782 195.803 653.962 198.736 679.217C208.166 675.114 218.464 673.409 228.712 674.254C238.961 675.098 248.841 678.467 257.472 684.058C266.102 689.649 273.214 697.29 278.174 706.298C283.133 715.306 285.786 725.402 285.895 735.685C304.42 723.336 326.5 717.443 348.714 718.92C370.928 720.396 392.035 729.159 408.763 743.85C418.4 739.435 428.878 737.156 439.479 737.169C442.697 737.167 445.912 737.372 449.104 737.784C455.527 738.608 461.812 740.286 467.79 742.775C479.949 747.814 490.55 755.994 498.507 766.478C500.011 768.453 501.412 770.503 502.705 772.622C505.242 769.424 507.996 766.405 510.947 763.586C523.233 751.922 538.669 744.116 555.345 741.135C572.021 738.153 589.205 740.127 604.771 746.812C620.337 753.497 633.601 764.6 642.922 778.746C652.242 792.893 657.21 809.461 657.21 826.402C657.21 828.347 657.21 830.267 657.031 832.161C656.782 835.883 656.294 839.585 655.572 843.245C677.147 844.685 697.352 854.33 712.04 870.199C715.833 872.114 719.501 874.269 723.021 876.649C731.364 870.381 741.11 866.239 751.413 864.584C761.717 862.929 772.269 863.809 782.156 867.149C792.043 870.49 800.967 876.189 808.156 883.754C815.345 891.319 820.582 900.522 823.414 910.566C839.862 913.328 855.206 920.647 867.704 931.692C880.201 942.737 889.351 957.065 894.114 973.049C895.342 973.049 896.673 972.921 897.8 972.921C913.969 972.921 929.476 979.341 940.914 990.769C952.352 1002.2 958.785 1017.7 958.798 1033.87Z" fill="#D2DCF1"/>
<path d="M1058.66 455.368C1057.5 454.959 1056.38 454.6 1055.35 454.268L1058.66 455.368Z" fill="#8CA1BF"/>
<path d="M116 1384H-83V-147H80.7197L87.1281 130.74L88.6797 199.24L106.927 989.646L108.478 1058.15L116 1384Z" fill="#283557"/>
<path d="M94 164.403H-83V275.149H94V164.403Z" fill="#DADADA"/>
<path opacity="0.2" d="M92 342H-83V275H90.4185L92 342Z" fill="#1D1D1B"/>
<path d="M104 636.146H-83V741.786H104V636.146Z" fill="#DADADA"/>
<path opacity="0.2" d="M103 806H-83V742H101.493L103 806Z" fill="#1D1D1B"/>
<path d="M403.585 644.268C396.965 639.178 384.885 633.858 372.255 628.518L369.375 635.698L398.665 648.038L403.585 644.268Z" fill="#283557"/>
<path d="M395.324 663.007L370.184 645.237L369.644 638.947L368.794 628.947L360.904 611.177L362.774 603.077L363.124 601.567L382.794 599.397L386.544 611.917C387.371 614.68 387.649 617.578 387.364 620.447L386.764 626.447L389.254 637.047L392.684 651.657L395.324 663.007Z" fill="#EDC396"/>
<path d="M446.605 596.29L440.265 596.48L440.85 615.99L447.19 615.8L446.605 596.29Z" fill="#CEA55F"/>
<path d="M440.381 597.33L396.363 598.736L396.881 614.928L440.898 613.522L440.381 597.33Z" fill="#1D1D1B"/>
<path d="M396.415 599.884L352.397 601.29L352.841 615.183L396.859 613.777L396.415 599.884Z" fill="#282826"/>
<path d="M352.462 603.147L308.444 604.554L308.769 614.729L352.787 613.322L352.462 603.147Z" fill="#1D1D1B"/>
<path d="M317.804 880.657L237.214 870.157L199.944 1007.75L286.704 1011.01L312.564 1007.75L339.394 1000.62L317.804 880.657Z" fill="#1D1D1B"/>
<path d="M345.515 1121.76L300.455 1140.28L293.645 1033.45L285.885 911.737L282.855 864.217L281.135 913.157L276.835 1034.86L273.035 1142.27H224.975V1140.23L225.905 1034.72L226.845 929.477L227.425 862.527L227.525 854.127H332.315L334.445 897.127L340.735 1024.82L345.515 1121.76Z" fill="#3C3C3B"/>
<path opacity="0.07" d="M242.754 843.637C244.429 844.575 246.155 845.42 247.924 846.167C246.184 845.297 244.484 844.467 242.754 843.637Z" fill="black"/>
<path opacity="0.4" d="M340.735 1024.82C325.284 1028.9 309.54 1031.79 293.645 1033.45L285.885 911.737L334.445 897.137L340.735 1024.82Z" fill="#1D1D1B"/>
<path d="M330.065 791.367L343.125 1002.09L328.185 1007.75C315.815 965.827 308.965 953.197 297.845 914.687L294.965 1014.4C267.845 1020.4 230.315 1014.55 199.965 1007.75L211.715 928.747V928.657L231.585 795.057C230.885 793.337 230.215 791.597 229.535 789.877C214.755 751.477 208.225 711.047 212.385 667.957L261.515 654.117L295.515 655.117L321.445 658.307C335.385 703.607 330.005 792.457 330.065 791.367Z" fill="#366C9E"/>
<path d="M261.215 650.697C266.965 663.577 294.335 661.747 297.135 650.767L296.195 640.447L294.385 620.377L262.795 616.137L261.705 641.027L261.215 650.697Z" fill="#FFD2A1"/>
<path d="M297.135 650.767L287.445 702.917L261.215 650.697C273.475 657.517 285.435 657.357 297.135 650.767Z" fill="white"/>
<path d="M278.305 662.997C286.836 662.978 295.203 660.656 302.525 656.277L300.245 652.547C293.596 656.532 285.996 658.649 278.245 658.677C271.845 658.677 264.755 656.287 255.925 651.157L253.765 654.917C263.295 660.457 271.095 663.037 278.295 663.037L278.305 662.997Z" fill="#5589B9"/>
<path d="M299.564 660.207C293.125 663.954 285.814 665.944 278.364 665.977C271.974 665.977 264.884 663.547 256.054 658.327L253.904 662.037C263.444 667.667 271.244 670.297 278.454 670.297C285.796 670.276 293.029 668.522 299.564 665.177V660.207Z" fill="#5589B9"/>
<path d="M278.605 677.587C287.173 677.56 295.565 675.154 302.845 670.637L300.525 666.937C293.919 671.043 286.303 673.235 278.525 673.267C272.135 673.267 265.045 670.797 256.215 665.497L254.045 669.197C263.585 674.917 271.395 677.587 278.615 677.587H278.605Z" fill="#5589B9"/>
<path d="M278.754 684.518C287.322 684.488 295.713 682.082 302.994 677.568L300.664 673.918C294.058 678.02 286.441 680.208 278.664 680.238C272.274 680.238 265.184 677.768 256.364 672.478L254.194 676.168C263.734 681.888 271.534 684.558 278.754 684.558V684.518Z" fill="#5589B9"/>
<path d="M295.544 633.287C306.754 637.957 313.544 645.907 313.154 660.437L299.744 661.647L311.354 668.847L274.594 724.717L276.594 833.277L270.404 723.457L287.194 687.457L297.144 650.717L295.544 633.287Z" fill="#283557"/>
<path d="M262.174 631.268C250.784 633.268 238.284 645.428 239.244 659.958L254.744 661.248L241.904 667.918L281.444 708.248L289.444 695.888L261.264 650.748L262.174 631.268Z" fill="#283557"/>
<path opacity="0.15" d="M310.885 646.237C308.885 652.237 305.715 657.697 299.745 661.647C287.265 664.297 279.935 658.577 276.585 648.777C273.585 640.077 275.785 612.237 275.785 612.237C282.555 635.067 293.165 648.917 310.885 646.237Z" fill="#1D1D1B"/>
<path d="M255.375 600.488C255.625 607.168 255.615 609.828 258.125 615.958C259.975 620.458 269.365 618.578 274.125 619.208C273.555 636.368 280.795 645.768 300.255 647.898C307.105 648.648 309.255 640.618 309.415 635.498C309.415 635.498 309.095 626.768 309.125 624.738L312.725 625.358C316.575 626.078 316.305 621.358 314.535 616.528C313.495 613.536 311.927 610.755 309.905 608.318C310.452 607.152 310.927 605.953 311.325 604.728C311.222 599.1 309.808 593.573 307.195 588.588C302.315 579.588 293.675 575.258 284.745 574.758C273.535 574.608 256.065 570.178 255.375 600.488Z" fill="#FFD2A1"/>
<path d="M249.584 602.917C249.76 604.544 250.024 606.159 250.374 607.757C251.974 615.757 255.374 624.867 259.904 629.967L267.234 628.587C268.569 628.34 269.757 627.59 270.556 626.493C271.354 625.395 271.7 624.033 271.524 622.687C271.424 621.687 271.294 620.687 271.204 619.747C268.307 617.201 266.422 613.698 265.894 609.877C265.894 609.617 265.894 609.357 265.894 609.117C265.634 602.747 269.524 602.317 272.334 603.397C274.644 604.277 275.434 606.677 275.784 609.137C276.541 608.382 277.478 607.831 278.507 607.537C279.535 607.244 280.622 607.216 281.664 607.457C281.364 604.684 281.091 602.077 280.844 599.637C280.412 595.894 280.231 592.125 280.304 588.357C280.304 587.787 280.374 587.247 280.424 586.707V586.607C281.214 578.847 285.214 575.607 297.264 578.367C300.924 574.507 290.084 568.537 276.674 570.897C263.674 573.207 254.084 578.957 250.594 590.317C250.494 590.597 250.414 590.877 250.334 591.187C250.334 591.247 250.314 591.317 250.274 591.397C249.891 592.832 249.61 594.293 249.434 595.767C249.202 598.148 249.252 600.548 249.584 602.917Z" fill="#1D1D1B"/>
<path d="M265.884 609.817C265.284 602.737 269.374 602.207 272.294 603.337C274.614 604.237 275.394 606.637 275.754 609.087V609.147C275.754 612.547 275.754 615.887 275.854 619.147C275.763 619.673 275.474 620.145 275.047 620.464C274.619 620.784 274.085 620.928 273.554 620.867C272.676 620.722 271.858 620.33 271.194 619.737C268.282 617.182 266.395 613.657 265.884 609.817Z" fill="#FFD2A1"/>
<path d="M275.765 609.077C276.521 608.324 277.457 607.776 278.484 607.484C279.511 607.191 280.595 607.165 281.635 607.407C285.355 628.087 286.425 636.667 309.085 638.957C316.085 640.357 316.285 654.897 302.085 653.407C296.597 652.726 291.237 651.251 286.175 649.027C277.305 645.127 273.385 634.907 275.895 619.097C276.395 615.937 275.825 612.547 275.795 609.097L275.765 609.077Z" fill="#1D1D1B"/>
<path opacity="0.1" d="M246.114 591.178C247.114 591.348 247.704 591.418 247.704 591.418L249.364 602.918H249.584C249.76 604.544 250.024 606.16 250.374 607.758L265.854 609.118L313.064 613.198C312.208 611.443 311.132 609.803 309.864 608.318C310.412 607.152 310.886 605.953 311.284 604.728C311.154 601.013 310.521 597.333 309.404 593.788C308.822 591.986 308.069 590.245 307.154 588.588L301.354 585.478C301.354 585.478 297.354 585.608 291.154 585.948C288.044 586.118 284.384 586.358 280.454 586.658L279.614 586.728C269.894 587.419 260.215 588.601 250.614 590.268C249.064 590.548 247.534 590.858 246.114 591.178Z" fill="#1D1D1B"/>
<path d="M247.705 591.417L250.255 591.347C260.317 591.116 270.346 590.113 280.255 588.347C283.945 587.697 287.545 586.897 291.075 585.987C296.884 584.52 302.593 582.68 308.165 580.477C313.065 569.007 321.065 564.917 315.815 559.497C310.885 554.407 285.595 563.147 261.215 572.907C240.615 581.147 233.065 590.917 247.705 591.417Z" fill="white"/>
<path d="M247.704 591.417L249.364 602.917H249.584C260.055 602.47 270.489 601.375 280.824 599.637C289.974 598.137 299.514 596.177 309.354 593.837H309.484L308.194 580.507C298.784 582.837 289.504 584.917 280.404 586.627C280.128 586.703 279.848 586.759 279.564 586.797C269.564 588.697 259.834 590.187 250.314 591.207C249.424 591.247 248.564 591.327 247.704 591.417Z" fill="#366C9E"/>
<path d="M325.995 597.458L308.545 589.268C301.825 589.928 295.245 592.268 286.545 596.878C302.305 602.968 321.265 608.078 325.995 597.458Z" fill="#1D1D1B"/>
<path d="M287.785 597.137C287.527 597.137 287.277 597.051 287.075 596.892C286.873 596.733 286.73 596.51 286.669 596.26C286.608 596.01 286.632 595.747 286.738 595.513C286.845 595.278 287.026 595.086 287.255 594.967C296.035 590.277 301.755 588.157 308.345 587.147C308.638 587.118 308.931 587.202 309.164 587.382C309.397 587.562 309.552 587.825 309.596 588.116C309.641 588.407 309.573 588.705 309.405 588.947C309.237 589.189 308.983 589.357 308.695 589.417C302.385 590.417 296.865 592.417 288.325 596.997C288.159 597.088 287.973 597.136 287.785 597.137Z" fill="#CEA55F"/>
<path d="M284.715 595.987C284.733 596.762 285.05 597.5 285.6 598.046C286.15 598.592 286.89 598.905 287.665 598.917C288.041 598.919 288.413 598.845 288.76 598.7C289.107 598.555 289.421 598.342 289.684 598.073C289.947 597.805 290.153 597.486 290.291 597.136C290.428 596.787 290.494 596.413 290.485 596.037C290.454 595.273 290.133 594.549 289.587 594.014C289.04 593.478 288.31 593.172 287.545 593.157C287.173 593.155 286.803 593.226 286.459 593.367C286.114 593.509 285.801 593.717 285.538 593.98C285.275 594.244 285.066 594.557 284.925 594.901C284.784 595.246 284.712 595.615 284.715 595.987Z" fill="#CEA55F"/>
<path d="M287.434 731.407C287.434 733.667 286.324 735.507 284.854 735.507C283.384 735.507 282.144 733.667 282.094 731.407C282.044 729.147 283.204 727.297 284.684 727.297C286.164 727.297 287.394 729.137 287.434 731.407Z" fill="#CEA55F"/>
<path d="M315.494 728.827C315.494 731.097 314.384 732.927 312.904 732.927C311.424 732.927 310.194 731.097 310.154 728.827C310.114 726.557 311.264 724.717 312.734 724.717C314.204 724.717 315.444 726.557 315.494 728.827Z" fill="#CEA55F"/>
<path d="M288.205 768.187C288.255 770.457 287.095 772.297 285.625 772.297C284.155 772.297 282.915 770.457 282.865 768.187C282.815 765.917 283.975 764.087 285.455 764.087C286.935 764.087 288.165 765.917 288.205 768.187Z" fill="#CEA55F"/>
<path d="M316.265 765.617C316.315 767.877 315.155 769.717 313.675 769.717C312.195 769.717 310.965 767.877 310.915 765.617C310.865 763.357 312.035 761.507 313.505 761.507C314.975 761.507 316.215 763.347 316.265 765.617Z" fill="#CEA55F"/>
<path d="M288.974 804.977C289.024 807.247 287.864 809.087 286.394 809.087C284.924 809.087 283.684 807.247 283.634 804.977C283.584 802.707 284.744 800.877 286.214 800.877C287.684 800.877 288.924 802.707 288.974 804.977Z" fill="#CEA55F"/>
<path d="M317.064 802.397C317.064 804.667 315.954 806.507 314.474 806.507C312.994 806.507 311.764 804.667 311.714 802.397C311.664 800.127 312.824 798.297 314.304 798.297C315.784 798.297 316.984 800.137 317.064 802.397Z" fill="#CEA55F"/>
<path d="M289.744 841.767C289.744 844.037 288.634 845.867 287.154 845.867C285.674 845.867 284.444 844.037 284.404 841.767C284.364 839.497 285.514 837.657 286.984 837.657C288.454 837.657 289.694 839.497 289.744 841.767Z" fill="#CEA55F"/>
<path d="M317.805 839.187C317.805 841.457 316.685 843.297 315.215 843.297C313.745 843.297 312.505 841.457 312.455 839.187C312.405 836.917 313.565 835.087 315.045 835.087C316.525 835.087 317.755 836.917 317.805 839.187Z" fill="#CEA55F"/>
<path opacity="0.2" d="M239.174 702.917L235.664 756.027L264.734 767.597C264.734 767.597 253.474 793.187 252.884 792.197C252.294 791.207 202.704 769.857 202.704 769.857L239.174 702.917Z" fill="#1D1D1B"/>
<path opacity="0.2" d="M274.514 796.497L274.724 806.497L264.464 813.227C242.014 841.367 225.464 881.987 211.694 928.787V928.697L231.564 795.097C230.864 793.377 230.194 791.637 229.514 789.917L274.514 796.497Z" fill="#1D1D1B"/>
<path d="M274.564 799.167C273.004 798.947 269.344 798.497 267.774 798.297L248.414 792.227L254.294 783.567L263.694 769.717L273.104 771.467L273.824 785.117L274.564 799.167Z" fill="#FFD2A1"/>
<path opacity="0.2" d="M274.564 799.167C273.004 798.947 269.344 798.497 267.774 798.297L248.414 792.227L254.294 783.567L266.534 788.117L273.824 785.117L274.564 799.167Z" fill="#1D1D1B"/>
<path d="M255.274 798.177C255.314 800.973 255.602 803.761 256.134 806.507C227.014 806.407 200.464 797.777 180.514 787.707C179.32 771.231 180.207 754.671 183.154 738.417V738.367C188.384 708.677 199.504 681.837 212.334 668.007L238.734 702.917L219.884 760.777L264.724 767.617C258.154 780.507 255.164 789.047 255.274 798.177Z" fill="#366C9E"/>
<path opacity="0.2" d="M297.845 914.688L282.095 867.978L294.965 1014.4L297.845 914.688Z" fill="#1D1D1B"/>
<path d="M392.685 651.717C386.475 649.837 371.555 638.177 369.685 638.947H369.635L368.835 628.947L364.205 625.327C363.089 624.455 362.16 623.367 361.475 622.127C361.205 621.657 360.925 621.127 360.625 620.627C359.366 618.4 358.705 615.885 358.705 613.327V610.517L360.435 603.147C360.695 602.227 361.825 602.147 362.815 603.077C363.759 604.032 364.3 605.314 364.325 606.657L365.195 613.017L369.705 613.497C371.026 613.805 372.246 614.444 373.252 615.354C374.258 616.263 375.016 617.414 375.455 618.697L375.545 618.937C375.775 619.637 376.645 627.827 376.645 627.827C376.645 627.827 386.805 634.827 389.295 637.077L392.685 651.717Z" fill="#FFD2A1"/>
<path d="M360.184 601.008V601.068C360.158 601.941 360.429 602.797 360.952 603.496C361.475 604.195 362.22 604.696 363.064 604.918L366.544 605.828L378.334 605.368C380.404 605.288 380.774 602.948 381.174 600.908L382.854 600.228C382.897 600.004 382.893 599.773 382.841 599.551C382.789 599.329 382.691 599.12 382.553 598.938C382.416 598.756 382.241 598.605 382.042 598.495C381.842 598.385 381.622 598.317 381.394 598.298L370.174 597.348L362.804 598.168C362.098 598.245 361.444 598.575 360.962 599.097C360.481 599.619 360.204 600.298 360.184 601.008Z" fill="#FFD2A1"/>
<path d="M401.694 718.328C401.429 720.757 400.307 723.012 398.529 724.689C396.752 726.365 394.435 727.354 391.994 727.478C370.634 728.588 356.334 720.708 329.994 715.678C328.694 715.418 327.354 715.168 325.994 714.938L321.444 658.318L365.214 681.068C365.214 681.068 368.214 641.808 368.274 631.228C377.564 638.098 397.734 644.228 403.584 644.228C404.27 650.735 404.603 657.274 404.584 663.818C404.613 682.027 403.648 700.224 401.694 718.328Z" fill="#366C9E"/>
<path opacity="0.2" d="M401.694 718.327C401.428 720.756 400.306 723.011 398.529 724.688C396.751 726.365 394.434 727.354 391.994 727.477C370.634 728.587 356.334 720.707 329.994 715.677L328.174 693.827C343.114 710.617 372.314 719.827 392.674 719.117C398.524 707.277 402.154 689.547 404.614 663.877C404.63 682.067 403.655 700.243 401.694 718.327Z" fill="#1D1D1B"/>
<path opacity="0.2" d="M367.495 647.917C368.615 666.647 370.975 683.227 375.675 695.807C372.815 689.417 369.555 683.987 365.215 681.037L367.495 647.917Z" fill="#1D1D1B"/>
<path opacity="0.2" d="M256.134 806.507C227.014 806.407 200.464 797.777 180.514 787.707C179.32 771.232 180.207 754.671 183.154 738.417V738.367L186.224 782.677C206.304 795.457 228.044 796.607 255.224 798.177L256.134 806.507Z" fill="#1D1D1B"/>
</g>
<defs>
<clipPath id="clip0">
<rect width="1920" height="1080" fill="white"/>
</clipPath>
</defs>
</svg>
