<svg width="1920" height="1080" viewBox="0 0 1920 1080" fill="none" xmlns="http://www.w3.org/2000/svg">
<g clip-path="url(#clip0)">
<rect width="1920" height="1080" fill="white"/>
<path d="M1919.85 -185H0.0507812V1094.87H1919.85V-185Z" fill="#C1CFE5"/>
<path opacity="0.5" d="M60.7599 261.52C146.784 261.52 216.52 191.784 216.52 105.76C216.52 19.736 146.784 -50 60.7599 -50C-25.2639 -50 -95 19.736 -95 105.76C-95 191.784 -25.2639 261.52 60.7599 261.52Z" fill="#F7FAFF"/>
<path opacity="0.5" d="M173.289 132.878C188.263 70.7438 150.033 8.23473 87.898 -6.7398C25.7635 -21.7143 -36.7456 16.5163 -51.7202 78.6508C-66.6947 140.785 -28.464 203.295 33.6704 218.269C95.8049 233.244 158.314 195.013 173.289 132.878Z" fill="#F7FAFF"/>
<path d="M60.7596 199.804C112.699 199.804 154.804 157.699 154.804 105.759C154.804 53.8201 112.699 11.7148 60.7596 11.7148C8.82019 11.7148 -33.2852 53.8201 -33.2852 105.759C-33.2852 157.699 8.82019 199.804 60.7596 199.804Z" fill="#F7FAFF"/>
<path d="M1919.85 376.785V1094.87H325.367C296.637 1094.87 269.083 1083.45 248.768 1063.14C228.452 1042.82 217.039 1015.27 217.039 986.54C217.039 957.809 228.452 930.256 248.768 909.94C269.083 889.625 296.637 878.212 325.367 878.212C327.568 878.212 329.744 878.212 331.894 878.416C340.354 850.031 356.604 824.587 378.797 804.972C400.991 785.358 428.24 772.359 457.449 767.452C462.483 749.589 471.797 733.224 484.584 719.775C497.371 706.325 513.246 696.197 530.832 690.269C548.417 684.341 567.184 682.791 585.504 685.754C603.824 688.717 621.145 696.103 635.965 707.273C642.261 703.024 648.818 699.177 655.598 695.754C681.686 667.612 717.549 650.514 755.838 647.964C749.144 614.116 754.024 579.001 769.692 548.261C785.36 517.52 810.908 492.939 842.229 478.467C873.55 463.995 908.827 460.473 942.392 468.465C975.956 476.458 1005.86 495.502 1027.3 522.537C1044.07 495.105 1070.29 474.756 1101.03 465.325C1131.77 455.895 1164.9 458.035 1194.17 471.342C1229.32 440.656 1275.02 424.808 1321.62 427.133C1368.23 429.458 1412.12 449.775 1444.05 483.808C1461.5 477.665 1479.84 474.423 1498.34 474.209C1487.97 461.447 1481.43 446.008 1479.47 429.681C1477.52 413.354 1480.23 396.807 1487.29 381.957C1494.35 367.106 1505.47 354.56 1519.37 345.771C1533.27 336.982 1549.37 332.311 1565.81 332.297C1567.68 332.297 1569.55 332.297 1571.39 332.476C1582.16 290.738 1607.77 254.359 1643.45 230.164C1679.12 205.969 1722.39 195.619 1765.15 201.056C1807.91 206.493 1847.22 227.344 1875.7 259.697C1904.18 292.049 1919.88 333.682 1919.85 376.785Z" fill="#D2DCF1"/>
<path d="M1175.81 542.374H1218.83V574.373H1175.81V646H1136.61V574.373H995.895V551.274L1134.06 337.453H1175.81V542.374ZM1039.34 542.374H1136.61V389.584L1130.25 401.451L1039.34 542.374Z" fill="#2A7DFA"/>
<path d="M1471.22 527.964C1471.22 547.601 1468.96 565.049 1464.44 580.307C1459.92 595.423 1453.42 608.209 1444.94 618.663C1436.46 628.976 1426.08 636.817 1413.79 642.186C1401.5 647.554 1387.44 650.238 1371.62 650.238C1355.94 650.238 1341.88 647.554 1329.45 642.186C1317.16 636.817 1306.7 628.976 1298.08 618.663C1289.47 608.209 1282.83 595.423 1278.16 580.307C1273.64 565.049 1271.38 547.601 1271.38 527.964V455.701C1271.38 436.064 1273.64 418.687 1278.16 403.57C1282.68 388.312 1289.18 375.456 1297.66 365.002C1306.28 354.548 1316.73 346.636 1329.02 341.268C1341.46 335.758 1355.51 333.003 1371.19 333.003C1387.02 333.003 1401.07 335.758 1413.37 341.268C1425.8 346.636 1436.25 354.548 1444.73 365.002C1453.35 375.456 1459.92 388.312 1464.44 403.57C1468.96 418.687 1471.22 436.064 1471.22 455.701V527.964ZM1310.8 520.123L1430.95 427.94C1428.69 407.455 1422.69 391.915 1412.94 381.319C1403.33 370.582 1389.42 365.214 1371.19 365.214C1350.57 365.214 1335.31 372.207 1325.42 386.193C1315.67 400.038 1310.8 420.312 1310.8 447.013V520.123ZM1431.8 465.449L1311.86 557.208C1314.26 577.128 1320.41 592.315 1330.29 602.77C1340.18 613.224 1353.96 618.451 1371.62 618.451C1392.39 618.451 1407.57 611.387 1417.18 597.26C1426.93 583.132 1431.8 562.788 1431.8 536.229V465.449Z" fill="#2A7DFA"/>
<path d="M1697.12 542.374H1740.14V574.373H1697.12V646H1657.91V574.373H1517.2V551.274L1655.37 337.453H1697.12V542.374ZM1560.65 542.374H1657.91V389.584L1651.56 401.451L1560.65 542.374Z" fill="#2A7DFA"/>
<path d="M958.799 1033.87C958.799 1050.05 952.373 1065.56 940.933 1077C929.494 1088.44 913.979 1094.87 897.801 1094.87H0.0507812V690.557C0.0912141 665.132 9.84606 640.683 27.3193 622.213C44.7926 603.744 68.6633 592.65 94.0471 591.201C119.431 589.752 144.409 598.059 163.87 614.42C183.331 630.782 195.804 653.962 198.737 679.217C208.167 675.114 218.465 673.409 228.713 674.254C238.962 675.098 248.842 678.467 257.473 684.058C266.103 689.649 273.215 697.29 278.175 706.298C283.134 715.306 285.787 725.402 285.896 735.685C304.421 723.336 326.501 717.443 348.715 718.92C370.929 720.396 392.036 729.159 408.764 743.85C418.401 739.435 428.879 737.156 439.48 737.169C442.698 737.167 445.913 737.372 449.105 737.784C455.528 738.608 461.813 740.286 467.791 742.775C479.95 747.814 490.551 755.994 498.508 766.478C500.012 768.453 501.413 770.503 502.706 772.622C505.243 769.424 507.997 766.405 510.948 763.586C523.234 751.922 538.67 744.116 555.346 741.135C572.022 738.153 589.206 740.127 604.772 746.812C620.338 753.497 633.602 764.6 642.923 778.746C652.243 792.893 657.211 809.461 657.211 826.402C657.211 828.347 657.211 830.267 657.032 832.161C656.783 835.883 656.295 839.585 655.573 843.245C677.148 844.685 697.353 854.33 712.041 870.199C715.834 872.114 719.502 874.269 723.022 876.649C731.365 870.381 741.111 866.239 751.414 864.584C761.718 862.929 772.27 863.809 782.157 867.149C792.044 870.49 800.968 876.189 808.157 883.754C815.346 891.319 820.583 900.522 823.415 910.566C839.863 913.328 855.207 920.647 867.705 931.692C880.202 942.737 889.352 957.065 894.115 973.049C895.343 973.049 896.674 972.921 897.801 972.921C913.97 972.921 929.477 979.341 940.915 990.769C952.353 1002.2 958.786 1017.7 958.799 1033.87Z" fill="#D2DCF1"/>
<path d="M1058.66 455.368C1057.5 454.959 1056.38 454.6 1055.35 454.268L1058.66 455.368Z" fill="#8CA1BF"/>
<path d="M2929.27 614.311L2931.93 614.538L2876.79 1258.26L735.035 1074.83L735.133 1073.68C710.484 1067.66 689.011 1052.56 674.999 1031.41C660.987 1010.25 655.466 984.595 659.539 959.55C663.612 934.505 676.978 911.917 696.971 896.293C716.964 880.668 742.113 873.157 767.4 875.257C770.575 875.529 773.75 875.801 776.808 876.503C792.063 859.149 811.786 846.312 833.83 839.388C855.874 832.464 879.395 831.72 901.832 837.235C900.243 824.069 900.042 810.772 901.232 797.563C904.864 754.036 923.6 713.149 954.197 681.978C984.794 650.808 1025.33 631.316 1068.78 626.876C1112.23 622.437 1155.87 633.33 1192.14 657.669C1228.4 682.008 1255.02 718.262 1267.38 760.156C1294.44 744.014 1325.56 735.978 1357.06 737.002C1388.55 738.027 1419.08 748.069 1445.04 765.936C1463.66 726.869 1492.35 693.468 1528.16 669.169C1563.98 644.871 1605.62 630.552 1648.8 627.687C1691.98 624.821 1735.15 633.513 1773.86 652.866C1812.57 672.22 1845.42 701.537 1869.04 737.802C1874.18 707.692 1889.64 680.309 1912.77 660.359C1935.89 640.408 1965.25 629.135 1995.79 628.476C2009.12 590.932 2035.67 559.525 2070.47 540.123C2105.26 520.721 2145.94 514.651 2184.88 523.045C2223.83 531.439 2258.39 553.725 2282.11 585.739C2305.82 617.752 2317.08 657.305 2313.76 697.009L2313.73 697.326C2344.73 691.672 2376.69 694.741 2406.05 706.192C2431.7 660.322 2471.5 623.975 2519.51 602.572C2567.51 581.17 2621.15 575.86 2672.41 587.435C2671.83 580.211 2671.85 572.951 2672.47 565.73C2673.85 547.277 2679.1 529.321 2687.9 513.038C2696.69 496.755 2708.82 482.512 2723.49 471.24C2738.17 459.969 2755.06 451.922 2773.06 447.628C2791.06 443.334 2809.76 442.888 2827.95 446.32C2846.13 449.752 2863.38 456.985 2878.58 467.544C2893.78 478.104 2906.57 491.753 2916.13 507.599C2925.69 523.444 2931.79 541.129 2934.04 559.496C2936.29 577.864 2934.64 596.5 2929.2 614.185L2929.27 614.311Z" fill="#E0E8F7"/>
<path d="M2049.5 784.947H2051.06V1162.3H795.54V1161.63C780.896 1159.35 767.647 1151.64 758.439 1140.03C749.23 1128.42 744.739 1113.76 745.86 1098.98C746.982 1084.2 753.635 1070.39 764.491 1060.3C775.347 1050.22 789.608 1044.59 804.428 1044.55C806.289 1044.55 808.15 1044.55 809.965 1044.81C817.978 1033.95 828.815 1025.5 841.299 1020.37C853.782 1015.24 867.432 1013.63 880.765 1015.73C879.184 1008.14 878.404 1000.41 878.438 992.669C878.382 967.158 887.247 942.43 903.5 922.765C919.752 903.101 942.368 889.737 967.433 884.988C992.498 880.239 1018.44 884.403 1040.75 896.76C1063.07 909.116 1080.37 928.887 1089.65 952.651C1104.59 941.908 1122.3 935.68 1140.68 934.707C1159.06 933.734 1177.33 938.056 1193.32 947.16C1202.21 923.497 1217.25 902.629 1236.88 886.704C1256.51 870.779 1280.02 860.371 1305.01 856.551C1330 852.731 1355.55 855.638 1379.04 864.971C1402.54 874.304 1423.12 889.728 1438.67 909.654C1440.16 891.876 1447.79 875.171 1460.25 862.408C1472.72 849.645 1489.24 841.622 1506.98 839.716C1512.87 817.203 1526.75 797.603 1546.03 784.578C1565.32 771.552 1588.68 765.993 1611.77 768.936C1634.85 771.88 1656.07 783.127 1671.47 800.575C1686.87 818.023 1695.39 840.479 1695.44 863.75V863.936C1713.19 859.1 1731.95 859.294 1749.6 864.494C1762.24 836.522 1783.59 813.386 1810.46 798.539C1837.33 783.691 1868.28 777.928 1898.69 782.108C1897.99 777.934 1897.64 773.708 1897.64 769.475C1897.52 758.667 1899.69 747.956 1903.99 738.042C1908.3 728.128 1914.65 719.235 1922.62 711.944C1930.6 704.653 1940.03 699.129 1950.29 695.733C1960.55 692.337 1971.42 691.145 1982.17 692.236C1992.92 693.327 2003.32 696.676 2012.69 702.064C2022.06 707.451 2030.19 714.757 2036.54 723.501C2042.89 732.246 2047.33 742.234 2049.55 752.81C2051.78 763.387 2051.74 774.314 2049.46 784.877L2049.5 784.947Z" fill="#D2DCF1"/>
<path d="M116 1384H-83V-147H80.7197L87.1281 130.74L88.6797 199.24L106.927 989.646L108.478 1058.15L116 1384Z" fill="#283557"/>
<path d="M94 164.403H-83V275.149H94V164.403Z" fill="#DADADA"/>
<path opacity="0.2" d="M92 342H-83V275H90.4185L92 342Z" fill="#1D1D1B"/>
<path d="M104 636.146H-83V741.786H104V636.146Z" fill="#DADADA"/>
<path opacity="0.2" d="M103 806H-83V742H101.493L103 806Z" fill="#1D1D1B"/>
<path d="M403.585 644.268C396.965 639.178 384.885 633.858 372.255 628.518L369.375 635.698L398.665 648.038L403.585 644.268Z" fill="#283557"/>
<path d="M395.324 663.007L370.184 645.237L369.644 638.947L368.794 628.947L360.904 611.177L362.774 603.077L363.124 601.567L382.794 599.397L386.544 611.917C387.371 614.68 387.649 617.578 387.364 620.447L386.764 626.447L389.254 637.047L392.684 651.657L395.324 663.007Z" fill="#EDC396"/>
<path d="M446.606 596.29L440.266 596.48L440.851 615.99L447.191 615.8L446.606 596.29Z" fill="#CEA55F"/>
<path d="M440.381 597.33L396.363 598.736L396.881 614.928L440.898 613.522L440.381 597.33Z" fill="#1D1D1B"/>
<path d="M396.416 599.884L352.398 601.29L352.842 615.183L396.86 613.777L396.416 599.884Z" fill="#282826"/>
<path d="M352.463 603.147L308.445 604.554L308.77 614.729L352.788 613.322L352.463 603.147Z" fill="#1D1D1B"/>
<path d="M317.805 880.657L237.215 870.157L199.945 1007.75L286.705 1011.01L312.565 1007.75L339.395 1000.62L317.805 880.657Z" fill="#1D1D1B"/>
<path d="M345.515 1121.76L300.455 1140.28L293.645 1033.45L285.885 911.737L282.855 864.217L281.135 913.157L276.835 1034.86L273.035 1142.27H224.975V1140.23L225.905 1034.72L226.845 929.477L227.425 862.527L227.525 854.127H332.315L334.445 897.127L340.735 1024.82L345.515 1121.76Z" fill="#3C3C3B"/>
<path opacity="0.07" d="M242.754 843.637C244.429 844.575 246.155 845.42 247.924 846.167C246.184 845.297 244.484 844.467 242.754 843.637Z" fill="black"/>
<path opacity="0.4" d="M340.735 1024.82C325.284 1028.9 309.54 1031.79 293.645 1033.45L285.885 911.737L334.445 897.137L340.735 1024.82Z" fill="#1D1D1B"/>
<path d="M330.065 791.367L343.125 1002.09L328.185 1007.75C315.815 965.827 308.965 953.197 297.845 914.687L294.965 1014.4C267.845 1020.4 230.315 1014.55 199.965 1007.75L211.715 928.747V928.657L231.585 795.057C230.885 793.337 230.215 791.597 229.535 789.877C214.755 751.477 208.225 711.047 212.385 667.957L261.515 654.117L295.515 655.117L321.445 658.307C335.385 703.607 330.005 792.457 330.065 791.367Z" fill="#366C9E"/>
<path d="M261.215 650.697C266.965 663.577 294.335 661.747 297.135 650.767L296.195 640.447L294.385 620.377L262.795 616.137L261.705 641.027L261.215 650.697Z" fill="#FFD2A1"/>
<path d="M297.135 650.767L287.445 702.917L261.215 650.697C273.475 657.517 285.435 657.357 297.135 650.767Z" fill="white"/>
<path d="M278.304 662.997C286.835 662.978 295.202 660.656 302.524 656.277L300.244 652.547C293.595 656.532 285.995 658.649 278.244 658.677C271.844 658.677 264.754 656.287 255.924 651.157L253.764 654.917C263.294 660.457 271.094 663.037 278.294 663.037L278.304 662.997Z" fill="#5589B9"/>
<path d="M299.564 660.207C293.125 663.954 285.814 665.944 278.364 665.977C271.974 665.977 264.884 663.547 256.054 658.327L253.904 662.037C263.444 667.667 271.244 670.297 278.454 670.297C285.796 670.276 293.029 668.522 299.564 665.177V660.207Z" fill="#5589B9"/>
<path d="M278.605 677.587C287.173 677.56 295.565 675.154 302.845 670.637L300.525 666.937C293.919 671.043 286.303 673.235 278.525 673.267C272.135 673.267 265.045 670.797 256.215 665.497L254.045 669.197C263.585 674.917 271.395 677.587 278.615 677.587H278.605Z" fill="#5589B9"/>
<path d="M278.755 684.518C287.323 684.488 295.714 682.082 302.995 677.568L300.665 673.918C294.059 678.02 286.442 680.208 278.665 680.238C272.275 680.238 265.185 677.768 256.365 672.478L254.195 676.168C263.735 681.888 271.535 684.558 278.755 684.558V684.518Z" fill="#5589B9"/>
<path d="M295.544 633.287C306.754 637.957 313.544 645.907 313.154 660.437L299.744 661.647L311.354 668.847L274.594 724.717L276.594 833.277L270.404 723.457L287.194 687.457L297.144 650.717L295.544 633.287Z" fill="#283557"/>
<path d="M262.173 631.268C250.783 633.268 238.283 645.428 239.243 659.958L254.743 661.248L241.903 667.918L281.443 708.248L289.443 695.888L261.263 650.748L262.173 631.268Z" fill="#283557"/>
<path opacity="0.15" d="M310.884 646.237C308.884 652.237 305.714 657.697 299.744 661.647C287.264 664.297 279.934 658.577 276.584 648.777C273.584 640.077 275.784 612.237 275.784 612.237C282.554 635.067 293.164 648.917 310.884 646.237Z" fill="#1D1D1B"/>
<path d="M255.375 600.488C255.625 607.168 255.615 609.828 258.125 615.958C259.975 620.458 269.365 618.578 274.125 619.208C273.555 636.368 280.795 645.768 300.255 647.898C307.105 648.648 309.255 640.618 309.415 635.498C309.415 635.498 309.095 626.768 309.125 624.738L312.725 625.358C316.575 626.078 316.305 621.358 314.535 616.528C313.495 613.536 311.927 610.755 309.905 608.318C310.452 607.152 310.927 605.953 311.325 604.728C311.222 599.1 309.808 593.573 307.195 588.588C302.315 579.588 293.675 575.258 284.745 574.758C273.535 574.608 256.065 570.178 255.375 600.488Z" fill="#FFD2A1"/>
<path d="M249.584 602.917C249.76 604.544 250.024 606.159 250.374 607.757C251.974 615.757 255.374 624.867 259.904 629.967L267.234 628.587C268.569 628.34 269.757 627.59 270.556 626.493C271.354 625.395 271.7 624.033 271.524 622.687C271.424 621.687 271.294 620.687 271.204 619.747C268.307 617.201 266.422 613.698 265.894 609.877C265.894 609.617 265.894 609.357 265.894 609.117C265.634 602.747 269.524 602.317 272.334 603.397C274.644 604.277 275.434 606.677 275.784 609.137C276.541 608.382 277.478 607.831 278.507 607.537C279.535 607.244 280.622 607.216 281.664 607.457C281.364 604.684 281.091 602.077 280.844 599.637C280.412 595.894 280.231 592.125 280.304 588.357C280.304 587.787 280.374 587.247 280.424 586.707V586.607C281.214 578.847 285.214 575.607 297.264 578.367C300.924 574.507 290.084 568.537 276.674 570.897C263.674 573.207 254.084 578.957 250.594 590.317C250.494 590.597 250.414 590.877 250.334 591.187C250.334 591.247 250.314 591.317 250.274 591.397C249.891 592.832 249.61 594.293 249.434 595.767C249.202 598.148 249.252 600.548 249.584 602.917Z" fill="#1D1D1B"/>
<path d="M265.883 609.817C265.283 602.737 269.373 602.207 272.293 603.337C274.613 604.237 275.393 606.637 275.753 609.087V609.147C275.753 612.547 275.753 615.887 275.853 619.147C275.762 619.673 275.473 620.145 275.046 620.464C274.618 620.784 274.084 620.928 273.553 620.867C272.675 620.722 271.857 620.33 271.193 619.737C268.281 617.182 266.394 613.657 265.883 609.817Z" fill="#FFD2A1"/>
<path d="M275.765 609.077C276.521 608.324 277.457 607.776 278.484 607.484C279.511 607.191 280.595 607.165 281.635 607.407C285.355 628.087 286.425 636.667 309.085 638.957C316.085 640.357 316.285 654.897 302.085 653.407C296.597 652.726 291.237 651.251 286.175 649.027C277.305 645.127 273.385 634.907 275.895 619.097C276.395 615.937 275.825 612.547 275.795 609.097L275.765 609.077Z" fill="#1D1D1B"/>
<path opacity="0.1" d="M246.115 591.178C247.115 591.348 247.705 591.418 247.705 591.418L249.365 602.918H249.585C249.761 604.544 250.025 606.16 250.375 607.758L265.855 609.118L313.065 613.198C312.208 611.443 311.133 609.803 309.865 608.318C310.413 607.152 310.887 605.953 311.285 604.728C311.155 601.013 310.522 597.333 309.405 593.788C308.823 591.986 308.07 590.245 307.155 588.588L301.355 585.478C301.355 585.478 297.355 585.608 291.155 585.948C288.045 586.118 284.385 586.358 280.455 586.658L279.615 586.728C269.895 587.419 260.216 588.601 250.615 590.268C249.065 590.548 247.535 590.858 246.115 591.178Z" fill="#1D1D1B"/>
<path d="M247.705 591.417L250.255 591.347C260.317 591.116 270.346 590.113 280.255 588.347C283.945 587.697 287.545 586.897 291.075 585.987C296.884 584.52 302.593 582.68 308.165 580.477C313.065 569.007 321.065 564.917 315.815 559.497C310.885 554.407 285.595 563.147 261.215 572.907C240.615 581.147 233.065 590.917 247.705 591.417Z" fill="white"/>
<path d="M247.705 591.417L249.365 602.917H249.585C260.056 602.47 270.49 601.375 280.825 599.637C289.975 598.137 299.515 596.177 309.355 593.837H309.485L308.195 580.507C298.785 582.837 289.505 584.917 280.405 586.627C280.129 586.703 279.849 586.759 279.565 586.797C269.565 588.697 259.835 590.187 250.315 591.207C249.425 591.247 248.565 591.327 247.705 591.417Z" fill="#366C9E"/>
<path d="M325.995 597.458L308.545 589.268C301.825 589.928 295.245 592.268 286.545 596.878C302.305 602.968 321.265 608.078 325.995 597.458Z" fill="#1D1D1B"/>
<path d="M287.784 597.137C287.526 597.137 287.276 597.051 287.074 596.892C286.872 596.733 286.729 596.51 286.668 596.26C286.607 596.01 286.631 595.747 286.737 595.513C286.844 595.278 287.025 595.086 287.254 594.967C296.034 590.277 301.754 588.157 308.344 587.147C308.637 587.118 308.93 587.202 309.163 587.382C309.396 587.562 309.551 587.825 309.595 588.116C309.64 588.407 309.572 588.705 309.404 588.947C309.236 589.189 308.982 589.357 308.694 589.417C302.384 590.417 296.864 592.417 288.324 596.997C288.158 597.088 287.972 597.136 287.784 597.137Z" fill="#CEA55F"/>
<path d="M284.715 595.987C284.733 596.762 285.05 597.5 285.6 598.046C286.15 598.592 286.89 598.905 287.665 598.917C288.041 598.919 288.413 598.845 288.76 598.7C289.107 598.555 289.421 598.342 289.684 598.073C289.947 597.805 290.153 597.486 290.291 597.136C290.428 596.787 290.494 596.413 290.485 596.037C290.454 595.273 290.133 594.549 289.587 594.014C289.04 593.478 288.31 593.172 287.545 593.157C287.173 593.155 286.803 593.226 286.459 593.367C286.114 593.509 285.801 593.717 285.538 593.98C285.275 594.244 285.066 594.557 284.925 594.901C284.784 595.246 284.712 595.615 284.715 595.987Z" fill="#CEA55F"/>
<path d="M287.435 731.407C287.435 733.667 286.325 735.507 284.855 735.507C283.385 735.507 282.145 733.667 282.095 731.407C282.045 729.147 283.205 727.297 284.685 727.297C286.165 727.297 287.395 729.137 287.435 731.407Z" fill="#CEA55F"/>
<path d="M315.493 728.827C315.493 731.097 314.383 732.927 312.903 732.927C311.423 732.927 310.193 731.097 310.153 728.827C310.113 726.557 311.263 724.717 312.733 724.717C314.203 724.717 315.443 726.557 315.493 728.827Z" fill="#CEA55F"/>
<path d="M288.205 768.187C288.255 770.457 287.095 772.297 285.625 772.297C284.155 772.297 282.915 770.457 282.865 768.187C282.815 765.917 283.975 764.087 285.455 764.087C286.935 764.087 288.165 765.917 288.205 768.187Z" fill="#CEA55F"/>
<path d="M316.264 765.617C316.314 767.877 315.154 769.717 313.674 769.717C312.194 769.717 310.964 767.877 310.914 765.617C310.864 763.357 312.034 761.507 313.504 761.507C314.974 761.507 316.214 763.347 316.264 765.617Z" fill="#CEA55F"/>
<path d="M288.974 804.977C289.024 807.247 287.864 809.087 286.394 809.087C284.924 809.087 283.684 807.247 283.634 804.977C283.584 802.707 284.744 800.877 286.214 800.877C287.684 800.877 288.924 802.707 288.974 804.977Z" fill="#CEA55F"/>
<path d="M317.064 802.397C317.064 804.667 315.954 806.507 314.474 806.507C312.994 806.507 311.764 804.667 311.714 802.397C311.664 800.127 312.824 798.297 314.304 798.297C315.784 798.297 316.984 800.137 317.064 802.397Z" fill="#CEA55F"/>
<path d="M289.743 841.767C289.743 844.037 288.633 845.867 287.153 845.867C285.673 845.867 284.443 844.037 284.403 841.767C284.363 839.497 285.513 837.657 286.983 837.657C288.453 837.657 289.693 839.497 289.743 841.767Z" fill="#CEA55F"/>
<path d="M317.805 839.187C317.805 841.457 316.685 843.297 315.215 843.297C313.745 843.297 312.505 841.457 312.455 839.187C312.405 836.917 313.565 835.087 315.045 835.087C316.525 835.087 317.755 836.917 317.805 839.187Z" fill="#CEA55F"/>
<path opacity="0.2" d="M239.175 702.917L235.665 756.027L264.735 767.597C264.735 767.597 253.475 793.187 252.885 792.197C252.295 791.207 202.705 769.857 202.705 769.857L239.175 702.917Z" fill="#1D1D1B"/>
<path opacity="0.2" d="M274.515 796.497L274.725 806.497L264.465 813.227C242.015 841.367 225.465 881.987 211.695 928.787V928.697L231.565 795.097C230.865 793.377 230.195 791.637 229.515 789.917L274.515 796.497Z" fill="#1D1D1B"/>
<path d="M274.564 799.167C273.004 798.947 269.344 798.497 267.774 798.297L248.414 792.227L254.294 783.567L263.694 769.717L273.104 771.467L273.824 785.117L274.564 799.167Z" fill="#FFD2A1"/>
<path opacity="0.2" d="M274.564 799.167C273.004 798.947 269.344 798.497 267.774 798.297L248.414 792.227L254.294 783.567L266.534 788.117L273.824 785.117L274.564 799.167Z" fill="#1D1D1B"/>
<path d="M255.274 798.177C255.314 800.973 255.602 803.761 256.134 806.507C227.014 806.407 200.464 797.777 180.514 787.707C179.32 771.231 180.207 754.671 183.154 738.417V738.367C188.384 708.677 199.504 681.837 212.334 668.007L238.734 702.917L219.884 760.777L264.724 767.617C258.154 780.507 255.164 789.047 255.274 798.177Z" fill="#366C9E"/>
<path opacity="0.2" d="M297.844 914.688L282.094 867.978L294.964 1014.4L297.844 914.688Z" fill="#1D1D1B"/>
<path d="M392.685 651.717C386.475 649.837 371.555 638.177 369.685 638.947H369.635L368.835 628.947L364.205 625.327C363.089 624.455 362.16 623.367 361.475 622.127C361.205 621.657 360.925 621.127 360.625 620.627C359.366 618.4 358.705 615.885 358.705 613.327V610.517L360.435 603.147C360.695 602.227 361.825 602.147 362.815 603.077C363.759 604.032 364.3 605.314 364.325 606.657L365.195 613.017L369.705 613.497C371.026 613.805 372.246 614.444 373.252 615.354C374.258 616.263 375.016 617.414 375.455 618.697L375.545 618.937C375.775 619.637 376.645 627.827 376.645 627.827C376.645 627.827 386.805 634.827 389.295 637.077L392.685 651.717Z" fill="#FFD2A1"/>
<path d="M360.185 601.008V601.068C360.159 601.941 360.43 602.797 360.953 603.496C361.476 604.195 362.221 604.696 363.065 604.918L366.545 605.828L378.335 605.368C380.405 605.288 380.775 602.948 381.175 600.908L382.855 600.228C382.898 600.004 382.894 599.773 382.842 599.551C382.79 599.329 382.692 599.12 382.554 598.938C382.417 598.756 382.242 598.605 382.043 598.495C381.843 598.385 381.623 598.317 381.395 598.298L370.175 597.348L362.805 598.168C362.099 598.245 361.445 598.575 360.963 599.097C360.482 599.619 360.205 600.298 360.185 601.008Z" fill="#FFD2A1"/>
<path d="M401.695 718.328C401.43 720.757 400.308 723.012 398.53 724.689C396.753 726.365 394.436 727.354 391.995 727.478C370.635 728.588 356.335 720.708 329.995 715.678C328.695 715.418 327.355 715.168 325.995 714.938L321.445 658.318L365.215 681.068C365.215 681.068 368.215 641.808 368.275 631.228C377.565 638.098 397.735 644.228 403.585 644.228C404.271 650.735 404.604 657.274 404.585 663.818C404.614 682.027 403.649 700.224 401.695 718.328Z" fill="#366C9E"/>
<path opacity="0.2" d="M401.694 718.327C401.428 720.756 400.306 723.011 398.529 724.688C396.751 726.365 394.434 727.354 391.994 727.477C370.634 728.587 356.334 720.707 329.994 715.677L328.174 693.827C343.114 710.617 372.314 719.827 392.674 719.117C398.524 707.277 402.154 689.547 404.614 663.877C404.63 682.067 403.655 700.243 401.694 718.327Z" fill="#1D1D1B"/>
<path opacity="0.2" d="M367.495 647.917C368.615 666.647 370.975 683.227 375.675 695.807C372.815 689.417 369.555 683.987 365.215 681.037L367.495 647.917Z" fill="#1D1D1B"/>
<path opacity="0.2" d="M256.134 806.507C227.014 806.407 200.464 797.777 180.514 787.707C179.32 771.232 180.207 754.671 183.154 738.417V738.367L186.224 782.677C206.304 795.457 228.044 796.607 255.224 798.177L256.134 806.507Z" fill="#1D1D1B"/>
</g>
<defs>
<clipPath id="clip0">
<rect width="1920" height="1080" fill="white"/>
</clipPath>
</defs>
</svg>
