<svg width="43" height="43" viewBox="0 0 43 43" fill="none" xmlns="http://www.w3.org/2000/svg">
<path d="M14.5 16.206C15.8807 16.206 17 15.0723 17 13.6738C17 12.2753 15.8807 11.1416 14.5 11.1416C13.1193 11.1416 12 12.2753 12 13.6738C12 15.0723 13.1193 16.206 14.5 16.206Z" fill="#F0F0F0"/>
<path d="M40.5 5.06443C41.8807 5.06443 43 3.93072 43 2.53222C43 1.13371 41.8807 0 40.5 0C39.1193 0 38 1.13371 38 2.53222C38 3.93072 39.1193 5.06443 40.5 5.06443Z" fill="#F0F0F0"/>
<path d="M40.5 30.3867C41.8807 30.3867 43 29.253 43 27.8545C43 26.456 41.8807 25.3223 40.5 25.3223C39.1193 25.3223 38 26.456 38 27.8545C38 29.253 39.1193 30.3867 40.5 30.3867Z" fill="#F0F0F0"/>
<path d="M2.5 10.1289C3.88071 10.1289 5 8.99517 5 7.59667C5 6.19816 3.88071 5.06445 2.5 5.06445C1.11929 5.06445 0 6.19816 0 7.59667C0 8.99517 1.11929 10.1289 2.5 10.1289Z" fill="#F0F0F0"/>
<path d="M2.5 36.4638C3.88071 36.4638 5 35.3301 5 33.9316C5 32.5331 3.88071 31.3994 2.5 31.3994C1.11929 31.3994 0 32.5331 0 33.9316C0 35.3301 1.11929 36.4638 2.5 36.4638Z" fill="#F0F0F0"/>
<path d="M26.5 42.541C27.8807 42.541 29 41.4073 29 40.0088C29 38.6103 27.8807 37.4766 26.5 37.4766C25.1193 37.4766 24 38.6103 24 40.0088C24 41.4073 25.1193 42.541 26.5 42.541Z" fill="#F0F0F0"/>
<path d="M3 7.09001L40.62 2.2079C40.6691 2.19446 40.7214 2.20132 40.7655 2.22697C40.8095 2.25261 40.8418 2.29494 40.855 2.34464C40.8683 2.39433 40.8615 2.44733 40.8362 2.49197C40.8109 2.53661 40.7691 2.56923 40.72 2.58266L14.06 14.1802C14.021 14.1999 13.9894 14.2319 13.97 14.2714L3.36 32.7869C3.3407 32.8262 3.30876 32.8576 3.26945 32.8759C3.23015 32.8943 3.18583 32.8985 3.14384 32.8878C3.10186 32.8772 3.06471 32.8524 3.03855 32.8174C3.01239 32.7825 2.99879 32.7396 3 32.6958V8.3865C3.00054 8.35315 3.00921 8.32045 3.02522 8.2913C3.04124 8.26216 3.06412 8.23747 3.09182 8.21943C3.11952 8.20139 3.1512 8.19056 3.18402 8.1879C3.21685 8.18524 3.24982 8.19083 3.28 8.20418L14.5 13.6738L40.25 27.7225C40.277 27.7386 40.2993 27.7616 40.3148 27.7891C40.3303 27.8166 40.3385 27.8478 40.3385 27.8795C40.3385 27.9112 40.3303 27.9423 40.3148 27.9699C40.2993 27.9974 40.277 28.0204 40.25 28.0365L26.58 39.9379C26.5521 39.9521 26.5213 39.9596 26.49 39.9596C26.4588 39.9596 26.4279 39.9521 26.4 39.9379L2.5 33.8606" stroke="#F0F0F0" stroke-width="2" stroke-miterlimit="10" stroke-linecap="round"/>
</svg>
