<svg width="20" height="20" viewBox="0 0 20 20" fill="none" xmlns="http://www.w3.org/2000/svg">
<g clip-path="url(#clip0)">
<path d="M0.475114 10.6159L8.832 18.9728C9.14862 19.2894 9.53759 19.4478 9.99998 19.4478C10.4706 19.4478 10.8559 19.2894 11.1554 18.9728L19.5123 10.6159C19.8375 10.2907 20 9.90118 20 9.4476C20 9.00261 19.8373 8.61764 19.5123 8.29239L18.5496 7.32979C18.2414 7.00467 17.8563 6.84173 17.3942 6.84173C16.9321 6.84173 16.547 7.00467 16.2388 7.32979L12.4647 11.0909L12.4647 2.05363C12.4647 1.60895 12.3043 1.24719 11.9833 0.968871C11.6624 0.690825 11.2751 0.551936 10.8217 0.551936L9.17852 0.551936C8.7249 0.551936 8.33782 0.690869 8.01683 0.968871C7.69585 1.2471 7.5352 1.60895 7.5352 2.05363L7.5352 11.0909L3.76117 7.32975C3.45327 7.00463 3.06817 6.84169 2.60564 6.84169C2.15234 6.84169 1.76274 7.00463 1.43775 7.32975L0.475158 8.29234C0.15849 8.62623 4.4864e-05 9.0112 4.49021e-05 9.44756C-8.35339e-07 9.89259 0.158445 10.282 0.475114 10.6159Z" fill="#D61C1C"/>
</g>
<defs>
<clipPath id="clip0">
<rect width="20" height="20" fill="white" transform="translate(20 20) rotate(180)"/>
</clipPath>
</defs>
</svg>
