<svg width="20" height="20" viewBox="0 0 20 20" fill="none" xmlns="http://www.w3.org/2000/svg">
<path d="M19.5249 9.38411L11.168 1.02723C10.8514 0.710558 10.4624 0.552246 10 0.552246C9.5294 0.552246 9.14412 0.710558 8.84463 1.02723L0.487749 9.38411C0.162538 9.70927 0 10.0988 0 10.5524C0 10.9974 0.162718 11.3824 0.487749 11.7076L1.45043 12.6702C1.7586 12.9953 2.14375 13.1583 2.60582 13.1583C3.06794 13.1583 3.453 12.9953 3.76122 12.6702L7.53529 8.90908V17.9464C7.53529 18.3911 7.69567 18.7528 8.01665 19.0311C8.33764 19.3092 8.7249 19.4481 9.17834 19.4481H10.8215C11.2751 19.4481 11.6622 19.3091 11.9832 19.0311C12.3042 18.7529 12.4648 18.3911 12.4648 17.9464V8.90913L16.2388 12.6703C16.5467 12.9954 16.9318 13.1583 17.3944 13.1583C17.8477 13.1583 18.2373 12.9954 18.5622 12.6703L19.5248 11.7077C19.8415 11.3738 20 10.9888 20 10.5524C20 10.1074 19.8416 9.71799 19.5249 9.38411Z" fill="#419F1F"/>
</svg>
