<svg id="Capa_1" enable-background="new 0 0 512 512" height="512" viewBox="0 0 512 512" width="512" xmlns="http://www.w3.org/2000/svg"><path d="m105.072 256c8.284 0 15.023-6.74 15.023-15.024s-6.739-15.024-15.023-15.024-15.024 6.74-15.024 15.024 6.74 15.024 15.024 15.024z"/><path d="m0 451.144h512v-300.24h-512zm240.18-255.192h211.784v30h-211.784zm0 60.048h211.784v30h-211.784zm0 60.048h211.784v30h-211.784zm0 60.048h211.784v30h-211.784zm-60.048-180.144h30.024v30h-30.024zm0 60.048h30.024v30h-30.024zm0 60.048h30.024v30h-30.024zm0 60.048h30.024v30h-30.024zm-75.06-180.144c24.826 0 45.023 20.198 45.023 45.024s-20.197 45.024-45.023 45.024-45.024-20.198-45.024-45.024 20.198-45.024 45.024-45.024zm0 120.096c24.826 0 45.023 20.198 45.023 45.024 0 24.827-20.197 45.024-45.023 45.024s-45.024-20.198-45.024-45.024c0-24.827 20.198-45.024 45.024-45.024z"/><path d="m105.072 376.096c8.284 0 15.023-6.74 15.023-15.024s-6.739-15.024-15.023-15.024-15.024 6.74-15.024 15.024 6.74 15.024 15.024 15.024z"/><path d="m0 60.856h512v60.048h-512z"/></svg>