<svg width="60" height="143" viewBox="0 0 60 143" fill="none" xmlns="http://www.w3.org/2000/svg">
<path d="M-12.9215 87.7988C-12.8788 85.4553 -12.7179 83.1156 -12.4391 80.7884C-12.1722 78.5218 -11.5535 76.3108 -10.6053 74.2349C-9.56387 72.0348 -8.1478 70.0325 -6.42038 68.3175C-4.25717 66.2217 -1.75944 64.5016 0.969919 63.2279C2.21778 62.585 4.01212 61.7227 6.35293 60.6411C8.78655 59.5126 11.1332 58.2054 13.3737 56.7302C15.6331 55.2754 17.6895 53.5273 19.4891 51.5317C21.1493 49.7888 22.1029 47.4914 22.1649 45.0851C22.2296 43.8856 21.9983 42.6886 21.4914 41.5995C20.9845 40.5104 20.2175 39.5628 19.258 38.84C17.2413 37.2715 14.7614 36.4161 12.2065 36.4079C10.3802 36.3289 8.5635 36.7135 6.92588 37.526C5.50072 38.2327 4.19855 39.1642 3.06928 40.2846C2.02572 41.3238 1.09298 42.4687 0.286103 43.7007C-0.364257 44.7257 -1.09378 45.6984 -1.8958 46.6097L-22.0368 31.6113C-19.1112 24.969 -14.1273 19.4433 -7.82097 15.8504C-1.19979 12.1096 6.33389 10.2907 13.9325 10.5983C18.3357 10.7129 22.7021 11.4337 26.9086 12.7403C31.2003 14.0302 35.2062 16.1281 38.7107 18.9212C42.3079 21.8362 45.1787 25.547 47.0969 29.761C49.197 34.2066 50.1851 39.5754 50.0613 45.8673C50.0102 50.9487 48.8952 55.9629 46.7882 60.5871C44.7179 64.9986 41.0941 68.8426 35.9167 72.1192C33.4615 73.7242 30.8869 75.1385 28.2154 76.3497C25.5903 77.539 23.1791 78.7318 20.9819 79.9281C19.0004 80.9604 17.1538 82.233 15.4837 83.7172C14.8073 84.3014 14.2606 85.0207 13.8788 85.8288C13.497 86.637 13.2886 87.5161 13.2669 88.4096L-12.9215 87.7988ZM-13.3738 131.657L-12.7759 103.921L13.4185 104.514L12.8235 132.24L-13.3738 131.657Z" fill="#2A7DFA" fill-opacity="0.05"/>
</svg>
