<svg width="219" height="230" viewBox="0 0 219 230" fill="none" xmlns="http://www.w3.org/2000/svg">
<path d="M74.5274 127.512C75.6849 123.845 77.0269 120.239 78.5483 116.707C80.0229 113.265 82.0251 110.075 84.4829 107.25C87.1451 104.273 90.3047 101.782 93.8204 99.8873C98.199 97.5966 102.929 96.0525 107.816 95.3186C110.078 94.8877 113.302 94.366 117.489 93.7536C121.842 93.1105 126.143 92.1458 130.354 90.8674C134.586 89.6299 138.634 87.8366 142.394 85.5341C145.817 83.5647 148.387 80.3938 149.604 76.6369C150.264 74.7798 150.457 72.7889 150.166 70.8396C149.875 68.8903 149.11 67.0425 147.936 65.4589C145.493 62.0528 141.99 59.5531 137.974 58.3513C135.137 57.3772 132.1 57.137 129.146 57.6532C126.575 58.1021 124.093 58.9616 121.794 60.1989C119.669 61.3483 117.669 62.7154 115.826 64.2783C114.326 65.5884 112.726 66.7792 111.04 67.8397L86.331 34.8711C94.0245 25.7819 104.437 19.4076 116.03 16.6892C128.188 13.8848 140.887 14.5286 152.699 18.5483C159.573 20.7774 166.107 23.9432 172.117 27.9562C178.269 31.9826 183.596 37.1472 187.81 43.1722C192.113 49.4323 194.903 56.6063 195.96 64.1287C197.195 72.1002 196.252 81.0066 193.129 90.8481C190.684 98.8187 186.597 106.189 181.13 112.484C175.82 118.461 168.33 122.822 158.66 125.568C154.051 126.951 149.342 127.978 144.575 128.641C139.892 129.29 135.543 130.045 131.53 130.905C127.932 131.607 124.434 132.75 121.116 134.308C119.78 134.912 118.586 135.789 117.609 136.883C116.632 137.977 115.895 139.263 115.445 140.659L74.5274 127.512ZM53.4082 196.303L67.2545 152.945L108.19 166.066L94.3528 209.411L53.4082 196.303Z" fill="#2A7DFA" fill-opacity="0.1"/>
</svg>
